# xmcd
#
# Track frame offsets: 
#        150
#        11716
#        23204
#        34157
#        46911
#        60280
#        76231
#        88726
#        101075
#        112953
#        125368
#        137029
#        146871
#        157673
#        171030
#        183638
#        195271
#        206135
#
# Disc length: 2918 seconds
#
# Revision: 0
# Processed by: cddbd v1.5.2PL0 Copyright (c) Steve Scherf et al.
# Submitted via: ExactAudioCopyFreeDBPlugin 1.0
#
DISCID=eb0b6412
DTITLE=Howlin' Wolf - Singles 1958-1961
DYEAR=1900
DGENRE=Blues
TTITLE0=Poor Boy
TTITLE1=Sittin' On Top of The World
TTITLE2=I Didn't Know
TTITLE3=Moaning For My Baby
TTITLE4=I'm Leaving You
TTITLE5=Change My Way
TTITLE6=Howlin' Blues (I'm Going Away)
TTITLE7=I Better Go Now
TTITLE8=I've Been Abused
TTITLE9=Mr. Airplane Man
TTITLE10=You Gonna Wreck My Life
TTITLE11=The Natchez Burning
TTITLE12=Who's Been Talking
TTITLE13=Tell Me
TTITLE14=Spoonful
TTITLE15=Howlin' For My Baby
TTITLE16=Wang Dang Doodle
TTITLE17=Back Door Man
EXTD=
EXTT0=
EXTT1=
EXTT2=
EXTT3=
EXTT4=
EXTT5=
EXTT6=
EXTT7=
EXTT8=
EXTT9=
EXTT10=
EXTT11=
EXTT12=
EXTT13=
EXTT14=
EXTT15=
EXTT16=
EXTT17=
PLAYORDER=
